<?xml version="1.0" encoding="utf-8"?>
<svg height="458" version="1.1" width="449" xmlns="http://www.w3.org/2000/svg">
<path d="M0 0 C148.17 0 296.34 0 449 0 C449 151.14 449 302.28 449 458 C300.83 458 152.66 458 0 458 C0 306.86 0 155.72 0 0 Z " fill="#FEFEFE" transform="translate(0,0)"/>
<path d="M0 0 C148.17 0 296.34 0 449 0 C449 151.14 449 302.28 449 458 C300.83 458 152.66 458 0 458 C0 306.86 0 155.72 0 0 Z M36 120 C31.56653612 125.71248789 31.43015566 130.62032261 31.49879456 137.68305969 C31.49326016 138.74779217 31.48772576 139.81252466 31.48202366 140.90952176 C31.46842804 144.47157665 31.48338135 148.03292958 31.49829102 151.5949707 C31.4945074 154.15117694 31.48900701 156.70738112 31.48191833 159.26358032 C31.46940053 165.48313173 31.47553217 171.70242356 31.49059392 177.92196194 C31.50747855 185.17112731 31.5042405 192.42024237 31.50049984 199.66942134 C31.49462351 212.60965197 31.50878215 225.54978526 31.53344727 238.48999023 C31.55735246 251.03299613 31.56445703 263.5758719 31.55395508 276.11889648 C31.54253071 289.78801998 31.5406357 303.45708331 31.55505317 317.1262061 C31.55657894 318.58556854 31.5580993 320.04493099 31.55961418 321.50429344 C31.560372 322.22225419 31.56112981 322.94021493 31.56191059 323.67993206 C31.56664286 328.72680397 31.56480938 333.77364892 31.56054878 338.8205204 C31.55509066 345.62249029 31.56592336 352.42425416 31.58750343 359.2262001 C31.59305815 361.71985074 31.59354872 364.21351868 31.58855057 366.70717049 C31.58257438 370.11697475 31.59514849 373.5262341 31.61231995 376.93598938 C31.6063099 377.91762363 31.60029986 378.89925789 31.59410769 379.91063863 C31.70451755 392.00818882 35.64252556 402.72659134 44.36328125 411.33203125 C52.53510487 418.18212912 60.79137026 422.11408939 71.52963257 422.13422108 C73.1888944 422.14090784 73.1888944 422.14090784 74.88167667 422.14772969 C76.09167552 422.14754533 77.30167437 422.14736097 78.54833984 422.14717102 C79.83792571 422.15084771 81.12751158 422.1545244 82.4561758 422.1583125 C86.03408154 422.16831185 89.61197051 422.17204597 93.18988824 422.17470181 C97.04966965 422.17861104 100.90943785 422.18818899 104.76921082 422.19691467 C114.09021916 422.21666232 123.41122857 422.22674345 132.7322526 422.23564246 C137.12479631 422.24002842 141.51733883 422.24539446 145.90988159 422.25063133 C160.51728566 422.26764243 175.12468899 422.28213554 189.73210144 422.28938007 C193.52143352 422.29128988 197.3107656 422.29321022 201.10009766 422.29516602 C202.041885 422.29564976 202.98367234 422.2961335 203.95399868 422.2966319 C219.20270524 422.30492824 234.45133325 422.33025899 249.70000553 422.36274669 C265.36559008 422.39584972 281.03113476 422.41383179 296.69675446 422.41702431 C305.4882952 422.41918648 314.27972143 422.42789203 323.07122803 422.45348549 C330.56014743 422.4752369 338.04892449 422.48322116 345.5378719 422.47351871 C349.35523077 422.46898673 353.17229622 422.47079538 356.98961449 422.49028015 C361.13854429 422.51127356 365.28682892 422.50088575 369.43579102 422.48774719 C370.62794409 422.49871644 371.82009716 422.50968568 373.04837608 422.52098733 C386.11080861 422.42153418 397.32502349 418.94741828 407 410 C419.47632727 396.19936984 418.57594583 380.46946924 418.50170898 362.97338867 C418.50549577 360.43128155 418.51099877 357.88917649 418.51808167 355.34707642 C418.53056034 349.18202181 418.52450503 343.01723011 418.50940608 336.85218885 C418.49247966 329.66556131 418.49576434 322.47898414 418.49950016 315.29234282 C418.50536691 302.46902366 418.49125102 289.64580298 418.46655273 276.82250977 C418.44261033 264.39018061 418.43555973 251.95798285 418.44604492 239.52563477 C418.45745952 225.96710633 418.45937945 212.40863853 418.44494683 198.85011083 C418.44342106 197.40407996 418.4419007 195.95804908 418.44038582 194.5120182 C418.439628 193.80063848 418.43887019 193.08925876 418.43808941 192.35632208 C418.43335273 187.35056262 418.43519346 182.34483031 418.43945122 177.33907127 C418.44489775 170.60270557 418.4341167 163.86654848 418.41249657 157.13020706 C418.40693047 154.65786795 418.40646176 152.18551135 418.41144943 149.71317101 C418.41740174 146.33980309 418.40489757 142.9669915 418.38768005 139.59367371 C418.3936901 138.61449342 418.39970014 137.63531314 418.40589231 136.62646073 C418.3534762 130.9827682 417.72735835 126.97870852 415 122 C410.55209094 117.8775477 408.03224495 116.87529811 402.05470657 116.86857224 C400.77950189 116.86473109 399.5042972 116.86088995 398.19044995 116.8569324 C396.76199669 116.85771274 395.33354348 116.85859155 393.90509033 116.85955811 C392.39796267 116.85697599 390.89083569 116.85396326 389.38370967 116.8505547 C385.22683261 116.84246327 381.0699728 116.84069394 376.9130888 116.83995724 C372.43579835 116.83811038 367.95851694 116.83056489 363.48123169 116.82382202 C353.68374029 116.81022267 343.88625297 116.80421141 334.0887537 116.79981136 C327.97425563 116.79705148 321.85975915 116.79281458 315.74526215 116.78830719 C298.82523828 116.77611212 281.90521569 116.76581348 264.98518753 116.7624321 C263.35983837 116.76210275 263.35983837 116.76210275 261.70165388 116.76176675 C260.07235087 116.76143933 260.07235087 116.76143933 258.41013265 116.7611053 C256.20896864 116.76066183 254.00780463 116.76021526 251.80664062 116.75976562 C250.16885041 116.75943348 250.16885041 116.75943348 248.49797353 116.75909463 C230.80325214 116.75514606 213.10857192 116.73769132 195.41386643 116.7144061 C177.25899327 116.69070765 159.10414078 116.67823092 140.94925189 116.67706418 C130.751131 116.67614654 120.55306373 116.67037187 110.35495758 116.65224457 C101.67123143 116.63686385 92.98757546 116.63171108 84.30383828 116.63998267 C79.87174499 116.64389647 75.43979313 116.64292413 71.00771713 116.62892532 C66.951273 116.61622994 62.8950772 116.61734532 58.83863363 116.62951604 C57.37022255 116.63148064 55.90179414 116.6283595 54.43340746 116.61967167 C52.43851965 116.60861495 50.44355023 116.61783789 48.44865799 116.6280632 C46.78597 116.62716757 46.78597 116.62716757 45.08969235 116.62625384 C41.47653779 117.06332086 39.10165097 118.11704371 36 120 Z " fill="#1E74A6" transform="translate(0,0)"/>
<path d="M0 0 C148.17 0 296.34 0 449 0 C449 151.14 449 302.28 449 458 C300.83 458 152.66 458 0 458 C0 306.86 0 155.72 0 0 Z M18.6875 57.00390625 C6.16287976 71.81890844 2.66786396 88.54441901 2.74603271 107.47189331 C2.74291273 108.65664753 2.73979275 109.84140175 2.73657823 111.06205761 C2.73003884 114.31023548 2.73231391 117.55826065 2.73855066 120.80643439 C2.74311159 124.32527918 2.73607343 127.84410471 2.73059082 131.36294556 C2.72173317 138.24101037 2.72360274 145.11903135 2.7294161 151.99709783 C2.73394767 157.59210496 2.73453905 163.18709987 2.73236847 168.78210831 C2.732062 169.58087085 2.73175554 170.3796334 2.73143978 171.20260087 C2.73080028 172.82570497 2.73015185 174.44880905 2.7294946 176.07191314 C2.72380174 191.2652918 2.73033239 206.45864626 2.74109533 221.65202095 C2.75002645 234.66174353 2.74848039 247.67143041 2.73925781 260.68115234 C2.72853075 275.82005085 2.72435457 290.95892817 2.73048234 306.09782994 C2.73111938 307.71530668 2.73174812 309.33278342 2.73236847 310.95026016 C2.73267702 311.74590662 2.73298557 312.54155307 2.73330347 313.36131003 C2.73502337 318.94240521 2.73213051 324.52348684 2.72740936 330.10457993 C2.72177324 336.91653382 2.72337384 343.72844167 2.73397085 350.54039036 C2.73919159 354.0096212 2.74134656 357.47877557 2.73467255 360.94800568 C2.27555123 387.23384039 2.27555123 387.23384039 10 412 C10.45890625 412.96292969 10.9178125 413.92585938 11.390625 414.91796875 C20.39912711 432.13876697 35.89828727 443.50827605 54.18359375 449.30859375 C61.75133315 451.16641604 69.11138772 451.14362285 76.87150574 451.13371277 C78.17167312 451.13597833 79.47184051 451.13824388 80.81140691 451.14057809 C84.40953254 451.14668089 88.00763489 451.14656429 91.60576451 451.14538372 C95.49070983 451.14517932 99.37564775 451.1507022 103.2605896 451.15544128 C110.86838247 451.16374035 118.47616759 451.1664958 126.08396461 451.16705366 C132.2702904 451.16752923 138.45661363 451.16958602 144.64293861 451.17275429 C162.19346648 451.18155928 179.74398823 451.18617397 197.29451831 451.18542381 C198.2402594 451.18538386 199.18600048 451.1853439 200.16040039 451.18530273 C201.10730027 451.18526185 202.05420014 451.18522097 203.02979396 451.18517885 C218.36955325 451.18477256 233.70928797 451.19433838 249.04904016 451.2084411 C264.81073443 451.22281703 280.57241672 451.2297106 296.33411771 451.22884732 C305.17865462 451.22851575 314.02316577 451.23124554 322.86769676 451.24202538 C330.39938902 451.25114645 337.93104386 451.25329249 345.46273925 451.24651595 C349.30218092 451.24325869 353.14155087 451.24316523 356.98098564 451.2518692 C361.15190295 451.26122698 365.32265536 451.25493738 369.49357605 451.24723816 C370.69505962 451.25238172 371.89654319 451.25752529 373.13443536 451.26282471 C385.69273594 451.21175102 396.50297967 449.06522472 408 444 C408.79148437 443.65324219 409.58296875 443.30648438 410.3984375 442.94921875 C417.65554083 439.34686602 423.28135864 433.62018555 429 428 C429.59941406 427.43667969 430.19882812 426.87335938 430.81640625 426.29296875 C444.36782036 412.29845663 447.16492682 391.5451858 447.12698364 373.05813599 C447.12932363 371.29414847 447.12932363 371.29414847 447.13171089 369.49452484 C447.13499488 366.25242958 447.13383255 363.01037216 447.13072467 359.76827788 C447.12845359 356.26307846 447.1319587 352.75788398 447.13470459 349.25268555 C447.1391433 342.3941413 447.13819418 335.53560803 447.13529195 328.67706336 C447.13303009 323.10004486 447.13272879 317.52302942 447.13381577 311.94601059 C447.133969 311.15110191 447.13412223 310.35619324 447.13428011 309.53719642 C447.13459985 307.92213727 447.13492406 306.30707812 447.1352527 304.69201897 C447.13810202 289.55887474 447.13482924 274.42573658 447.12945233 259.29259335 C447.12498652 246.3225006 447.12575946 233.3524168 447.13037109 220.38232422 C447.13572949 205.30502515 447.13782557 190.2277314 447.13475883 175.15043151 C447.1344403 173.54082799 447.13412593 171.93122447 447.13381577 170.32162094 C447.13366149 169.52975991 447.13350721 168.73789887 447.13334826 167.92204205 C447.13248678 162.35614975 447.13393808 156.79026083 447.13629532 151.22436905 C447.13910765 144.43490725 447.13832496 137.64545699 447.13301457 130.8559965 C447.13039661 127.39540941 447.12934002 123.93484154 447.13266373 120.47425461 C447.13540514 116.71476113 447.13195753 112.95532137 447.12698364 109.1958313 C447.13032973 107.57221214 447.13032973 107.57221214 447.13374341 105.91579258 C447.08098937 85.29017861 442.35656284 68.66992526 427.72265625 53.66015625 C411.22439702 37.5406232 391.88743108 34.76761417 369.75 34.9375 C368.61175781 34.94201172 367.47351563 34.94652344 366.30078125 34.95117188 C363.53379591 34.96279786 360.76692842 34.97913569 358 35 C357.98018066 36.01312256 357.96036133 37.02624512 357.93994141 38.07006836 C357.86326389 41.86668719 357.7746481 45.66295341 357.68261719 49.45922852 C357.644582 51.09522486 357.60968712 52.73129761 357.578125 54.36743164 C357.12205345 77.71972022 357.12205345 77.71972022 351 85 C344.49798202 90.956047 337.25595571 92.5167016 328.58984375 92.31640625 C322.71068678 91.5981382 317.76380748 89.38037107 313.125 85.75 C300.99073867 70.04683828 306.57789513 58.11580522 306 35 C252.21 35 198.42 35 143 35 C142.67 47.87 142.34 60.74 142 74 C140.68 76.97 139.36 79.94 138 83 C137.67 83.99 137.34 84.98 137 86 C135.2265625 87.0546875 135.2265625 87.0546875 133 88 C132.26523438 88.35320312 131.53046875 88.70640625 130.7734375 89.0703125 C121.8439606 92.99695544 113.26452038 93.12966523 104 90 C99.19538857 87.46171471 96.57416368 84.78058969 94 80 C92.30088352 74.27859471 91.67538743 69.0725237 91.5859375 63.125 C91.56657135 62.31506592 91.5472052 61.50513184 91.5272522 60.6706543 C91.46803998 58.11387266 91.42130754 55.55704455 91.375 53 C91.33676633 51.2538879 91.29771157 49.50779358 91.2578125 47.76171875 C91.16238748 43.5079589 91.07814451 39.25411096 91 35 C86.75006008 34.94104864 82.50022784 34.9060884 78.25 34.875 C77.06277344 34.85824219 75.87554687 34.84148438 74.65234375 34.82421875 C52.52133696 34.70328429 34.21616235 40.86416228 18.6875 57.00390625 Z " fill="#FDFDFE" transform="translate(0,0)"/>
<path d="M0 0 C1.12910294 -0.00857025 2.25820587 -0.0171405 3.42152405 -0.02597046 C5.80434492 -0.03743311 8.18723576 -0.03847517 10.57006836 -0.02978516 C14.20743621 -0.02346395 17.84154971 -0.07040604 21.47851562 -0.12109375 C23.79817299 -0.12564011 26.11783908 -0.12704655 28.4375 -0.125 C29.5199852 -0.14341949 30.6024704 -0.16183899 31.71775818 -0.18081665 C37.82067361 -0.10636626 41.48234361 0.56932921 45.97511292 4.82632446 C48.93571206 8.83822855 49.53396041 12.4962255 49.51220703 17.40161133 C49.51198044 19.11281914 49.51198044 19.11281914 49.51174927 20.8585968 C49.5014267 22.07959579 49.49110413 23.30059479 49.48046875 24.55859375 C49.47763885 25.81669357 49.47480896 27.0747934 49.47189331 28.37101746 C49.46260746 31.70343632 49.44466101 35.03557797 49.42248535 38.36791992 C49.40196642 41.77325047 49.39287871 45.17860973 49.3828125 48.58398438 C49.36077265 55.25658668 49.32731015 61.92905859 49.28515625 68.6015625 C50.02129654 68.59268005 50.75743683 68.58379761 51.5158844 68.574646 C58.47434997 68.49429164 65.43274563 68.43349251 72.39155674 68.39431381 C75.96867834 68.37349379 79.54541459 68.34528026 83.12231445 68.29980469 C86.57827954 68.25614471 90.03387542 68.23238344 93.49009514 68.22205353 C95.44156457 68.21113334 97.39288675 68.17993942 99.34413147 68.14837646 C106.20109841 68.14665112 110.77831091 68.34682763 116.28515625 72.6015625 C119.79984818 77.17066201 120.39471106 81.83795236 120.4621582 87.48022461 C120.48141106 88.89210304 120.48141106 88.89210304 120.50105286 90.33250427 C120.50843979 91.33781693 120.51582672 92.34312958 120.5234375 93.37890625 C120.53150925 94.42301163 120.53958099 95.467117 120.54789734 96.54286194 C120.56170297 98.74755203 120.5724408 100.95226319 120.58032227 103.15698242 C120.59186941 105.40997586 120.61236394 107.66294136 120.6418457 109.91577148 C120.68448245 113.17450515 120.70068366 116.43242844 120.7109375 119.69140625 C120.72844559 120.69469467 120.74595367 121.69798309 120.76399231 122.73167419 C120.74606353 128.51927401 120.3599964 132.14546066 116.28515625 136.6015625 C111.4985427 141.33022198 106.67860587 141.05632587 100.30496216 141.05474854 C99.00162933 141.03410339 97.69829651 141.01345825 96.35546875 140.9921875 C94.9964176 140.98471857 93.63735561 140.97902872 92.27828979 140.97503662 C88.71718124 140.95983118 85.15673483 140.92059514 81.59588623 140.8762207 C77.95594233 140.83515686 74.31589048 140.81700204 70.67578125 140.796875 C63.54530355 140.75409454 56.41527334 140.68590637 49.28515625 140.6015625 C49.295149 141.65272751 49.295149 141.65272751 49.30534363 142.72512817 C49.36557984 149.34548054 49.41119396 155.96575586 49.44059277 162.58632088 C49.45621542 165.98963281 49.4773906 169.39271735 49.51147461 172.79589844 C49.55045659 176.71286247 49.56489365 180.62973601 49.578125 184.546875 C49.60135078 186.37063156 49.60135078 186.37063156 49.62504578 188.23123169 C49.62640643 195.08113374 49.26803723 199.80516853 44.91015625 205.3515625 C41.32871839 208.1065147 37.6594488 208.85271766 33.22290039 208.89208984 C32.2416066 208.90484955 31.26031281 208.91760925 30.24928284 208.93075562 C29.20022263 208.93298126 28.15116241 208.93520691 27.0703125 208.9375 C25.98181503 208.9441568 24.89331757 208.9508136 23.77183533 208.95767212 C21.47298876 208.96778373 19.17411293 208.9724896 16.87524414 208.97216797 C13.3636025 208.97654263 9.85321642 209.01288381 6.34179688 209.05078125 C4.10547304 209.05664942 1.86914325 209.06061881 -0.3671875 209.0625 C-1.41422348 209.07687103 -2.46125946 209.09124207 -3.5400238 209.10604858 C-9.43531996 209.06920016 -13.1339983 208.70722026 -17.71484375 204.6015625 C-20.76369116 201.30524186 -21.08342722 199.08347265 -21.05541992 194.63964844 C-21.05519333 193.43870544 -21.05496674 192.23776245 -21.05473328 191.00042725 C-21.03924942 189.70864563 -21.02376556 188.41686401 -21.0078125 187.0859375 C-21.00221427 185.74644445 -20.99794524 184.40694524 -20.99494934 183.06744385 C-20.98351829 179.54918329 -20.95406669 176.03129679 -20.9208374 172.51318359 C-20.89009864 168.92029886 -20.87643591 165.32735344 -20.86132812 161.734375 C-20.82919488 154.68995154 -20.77801996 147.6457815 -20.71484375 140.6015625 C-21.47381958 140.61710678 -22.23279541 140.63265106 -23.01477051 140.64866638 C-30.19364289 140.78936213 -37.37184 140.89571712 -44.55173492 140.9642477 C-48.24244858 141.00066642 -51.93201619 141.04999943 -55.62207031 141.12963867 C-59.18834052 141.20611814 -62.75351396 141.24763812 -66.32054138 141.2657032 C-68.33259304 141.284791 -70.34420776 141.3393714 -72.35559082 141.39463806 C-78.49666804 141.39725508 -82.72963231 141.30700853 -87.54882812 137.24633789 C-91.12581268 133.62626111 -91.8371823 130.68150899 -91.87597656 125.67456055 C-91.88558411 124.67309494 -91.89519165 123.67162933 -91.90509033 122.63981628 C-91.90934021 121.55855972 -91.91359009 120.47730316 -91.91796875 119.36328125 C-91.92366882 118.24975784 -91.9293689 117.13623444 -91.9352417 115.9889679 C-91.94469284 113.63108267 -91.95122613 111.27318423 -91.95507812 108.9152832 C-91.96477732 105.31372942 -91.99579775 101.7127478 -92.02734375 98.11132812 C-92.03387453 95.82031589 -92.03912471 93.52929957 -92.04296875 91.23828125 C-92.05531555 90.16309738 -92.06766235 89.08791351 -92.0803833 87.98014832 C-92.06395293 82.44556767 -91.92126878 78.33989298 -88.71484375 73.6015625 C-84.20553607 69.4304529 -81.002305 68.47515 -74.95825195 68.48803711 C-73.18675529 68.48815041 -73.18675529 68.48815041 -71.37947083 68.48826599 C-70.1044017 68.49342728 -68.82933258 68.49858856 -67.515625 68.50390625 C-65.55764229 68.50602867 -65.55764229 68.50602867 -63.56010437 68.50819397 C-60.09294719 68.5120087 -56.62583201 68.52183006 -53.15869141 68.53289795 C-49.61947193 68.54313452 -46.08024565 68.5476964 -42.54101562 68.55273438 C-35.5989411 68.56345327 -28.65689444 68.58051716 -21.71484375 68.6015625 C-21.7237262 67.90300644 -21.73260864 67.20445038 -21.74176025 66.48472595 C-21.82213624 59.87943673 -21.88292425 53.27428535 -21.92209244 46.66861629 C-21.94290686 43.27308612 -21.97110963 39.87796235 -22.01660156 36.48266602 C-22.06865164 32.57313007 -22.08783993 28.66375477 -22.10546875 24.75390625 C-22.12611389 23.54322983 -22.14675903 22.33255341 -22.16802979 21.08518982 C-22.16980676 14.37631734 -21.98223287 9.91718337 -17.71484375 4.6015625 C-12.44955375 -0.41713241 -6.88255492 -0.01156802 0 0 Z " fill="#07868F" transform="translate(211.71484375,162.3984375)"/>
<path d="M0 0 C4.0781436 1.42846046 6.76287729 4.34995768 9 8 C10.03265837 11.0979751 10.14500072 13.28846397 10.17700195 16.5378418 C10.19625481 18.24057503 10.19625481 18.24057503 10.21589661 19.97770691 C10.22328354 21.20580582 10.23067047 22.43390472 10.23828125 23.69921875 C10.246353 24.96337112 10.25442474 26.2275235 10.26274109 27.52998352 C10.27658355 30.20907251 10.28759881 32.88803841 10.29516602 35.56713867 C10.30619983 38.98225612 10.34056807 42.39671649 10.38033772 45.81160259 C10.41293661 49.08657548 10.41729466 52.36160837 10.42578125 55.63671875 C10.44328934 56.8546965 10.46079742 58.07267426 10.47883606 59.32756042 C10.46096682 66.35730544 9.87719969 71.06274867 6 77 C1.61512166 80.11006118 -2.19896887 80.43211277 -7.5 80.4375 C-9.40265625 80.46650391 -9.40265625 80.46650391 -11.34375 80.49609375 C-15.69481827 79.90572444 -17.71972351 78.90794625 -21 76 C-24.76373952 69.52936204 -24.43515719 63.17887874 -24.3984375 55.83984375 C-24.40130768 54.57660782 -24.40417786 53.31337189 -24.40713501 52.01185608 C-24.40917184 49.34800005 -24.40519084 46.68497663 -24.39111328 44.02124023 C-24.37400449 40.61954373 -24.38388483 37.21855661 -24.40183067 33.81688595 C-24.41531927 30.55368029 -24.40585742 27.29055868 -24.3984375 24.02734375 C-24.40451019 22.81159164 -24.41058289 21.59583954 -24.4168396 20.34324646 C-24.32877205 9.74367411 -24.32877205 9.74367411 -21 5 C-14.4462781 -0.9143344 -8.62395564 -0.7162102 0 0 Z " fill="#1E73A6" transform="translate(124,3)"/>
<path d="M0 0 C3.33178449 2.05613904 5.13858201 4.84233477 6.86328125 8.26953125 C7.24423218 11.19091797 7.24423218 11.19091797 7.25146484 14.44921875 C7.26092133 15.67398926 7.27037781 16.89875977 7.28012085 18.16064453 C7.27404816 19.47532715 7.26797546 20.79000977 7.26171875 22.14453125 C7.26374143 23.51546381 7.26665449 24.88639532 7.27041626 26.25732422 C7.27483053 29.1254301 7.26843788 31.993255 7.25439453 34.86132812 C7.23730273 38.52996184 7.24714879 42.19793705 7.26511192 45.86654663 C7.27597431 48.69593225 7.27249227 51.52516283 7.26472855 54.35455322 C7.26176599 56.36251251 7.27084591 58.37047792 7.28012085 60.37841797 C7.27066437 61.60318848 7.26120789 62.82795898 7.25146484 64.08984375 C7.24907806 65.16508301 7.24669128 66.24032227 7.24423218 67.34814453 C6.65001911 71.90496811 4.37356812 75.34429219 0.86328125 78.26953125 C-2.70112293 79.45766598 -5.69146657 79.51141078 -9.44921875 79.58203125 C-10.74472656 79.61941406 -12.04023438 79.65679687 -13.375 79.6953125 C-17.80143716 79.19429313 -19.79019703 78.18143976 -23.13671875 75.26953125 C-25.61436088 71.100243 -26.51554896 68.00496541 -26.54077148 63.17578125 C-26.55345566 61.99435547 -26.56613983 60.81292969 -26.57920837 59.59570312 C-26.57627274 58.33306641 -26.5733371 57.07042969 -26.5703125 55.76953125 C-26.57555435 54.46048828 -26.5807962 53.15144531 -26.5861969 51.80273438 C-26.59510509 49.03896405 -26.5927308 46.27548306 -26.58276367 43.51171875 C-26.57126709 39.98094646 -26.59150588 36.45117333 -26.62068081 32.92053223 C-26.64350055 29.53681313 -26.63657418 26.15332536 -26.6328125 22.76953125 C-26.64404648 21.50689453 -26.65528046 20.24425781 -26.66685486 18.94335938 C-26.59980218 10.49882546 -25.73951978 6.87233228 -19.76171875 0.89453125 C-13.75254882 -1.79923458 -6.30522375 -2.15553353 0 0 Z " fill="#1D72A5" transform="translate(341.13671875,3.73046875)"/>
<path d="M0 0 C0.66 0 1.32 0 2 0 C2.02312851 7.54498233 2.04091769 15.08996101 2.05181217 22.63497066 C2.05703989 26.13808885 2.0641355 29.64118285 2.07543945 33.14428711 C2.08834206 37.16780841 2.09322912 41.19130414 2.09765625 45.21484375 C2.10281754 46.47836166 2.10797882 47.74187958 2.11329651 49.04368591 C2.11337204 50.204814 2.11344757 51.36594208 2.11352539 52.56225586 C2.115746 53.59039902 2.11796661 54.61854218 2.12025452 55.67784119 C2 58 2 58 1 59 C-0.9935143 59.12369325 -2.9913647 59.1779639 -4.98852539 59.20532227 C-6.91040428 59.2352401 -6.91040428 59.2352401 -8.87110901 59.26576233 C-10.27995684 59.28274797 -11.68880595 59.29962673 -13.09765625 59.31640625 C-14.53112905 59.33696915 -15.96459569 59.35796544 -17.39805603 59.37937927 C-21.1775312 59.43466859 -24.9570617 59.48404745 -28.7366333 59.53222656 C-32.59074855 59.58239165 -36.44478309 59.63810371 -40.29882812 59.69335938 C-47.86581714 59.80102479 -55.4328731 59.90245097 -63 60 C-62 58 -62 58 -59 57 C-57.08281152 56.91134824 -55.16264087 56.88238243 -53.2434082 56.88647461 C-51.47191154 56.88658791 -51.47191154 56.88658791 -49.66462708 56.88670349 C-48.38955795 56.89186478 -47.11448883 56.89702606 -45.80078125 56.90234375 C-43.84279854 56.90446617 -43.84279854 56.90446617 -41.84526062 56.90663147 C-38.37810344 56.9104462 -34.91098826 56.92026756 -31.44384766 56.93133545 C-27.90462828 56.94157202 -24.3654019 56.94618871 -20.82617188 56.95117188 C-13.8840775 56.96135986 -6.94209844 56.98093412 0 57 C0 38.19 0 19.38 0 0 Z " fill="#1A7B88" transform="translate(190,174)"/>
<path d="M0 0 C0.33 0 0.66 0 1 0 C1 18.81 1 37.62 1 57 C20.8 57 40.6 57 61 57 C61 57.33 61 57.66 61 58 C40.87 58.33 20.74 58.66 0 59 C-1.31566199 56.36867601 -1.08011071 54.4855848 -1.02172852 51.54052734 C-1.00163223 50.39949554 -0.98153595 49.25846375 -0.96083069 48.08285522 C-0.93379562 46.84637238 -0.90676056 45.60988953 -0.87890625 44.3359375 C-0.84348976 42.4424205 -0.84348976 42.4424205 -0.80735779 40.51065063 C-0.74364001 37.15355005 -0.67544406 33.79660042 -0.60510254 30.43963623 C-0.53442724 27.01451697 -0.46960548 23.58928755 -0.40429688 20.1640625 C-0.27494289 13.4425933 -0.13968649 6.72126197 0 0 Z " fill="#168491" transform="translate(260,174)"/>
<path d="M0 0 C0.99 0 1.98 0 3 0 C2.5206753 4.31392226 1.2542015 6.16569547 -2 9 C-1.125 1.125 -1.125 1.125 0 0 Z " fill="#1469A0" transform="translate(7,78)"/>
</svg>